<svg width="121" height="41" viewBox="0 0 121 41" fill="none" xmlns="http://www.w3.org/2000/svg">
<path d="M35.3433 27.3707C37.3223 27.3707 38.3227 26.3502 38.7577 25.6554H38.9534C39.0404 26.3936 39.5623 27.0884 40.5845 27.0884H42.52V24.9172H42.0198C41.6718 24.9172 41.4979 24.7218 41.4979 24.4178V15.7113H38.9317V17.1008H38.7359C38.2357 16.4061 37.1918 15.429 35.2781 15.429C32.2334 15.429 29.9716 17.9476 29.9716 21.3998C29.9716 24.8521 32.2769 27.3707 35.3433 27.3707ZM35.8 24.8955C33.995 24.8955 32.5814 23.571 32.5814 21.4215C32.5814 19.3155 33.9515 17.8825 35.7783 17.8825C37.5181 17.8825 38.9751 19.1635 38.9751 21.4215C38.9751 23.3539 37.7355 24.8955 35.8 24.8955Z" fill="#EDEDF0"/>
<path d="M44.0351 31.5H46.6013V25.6554H46.797C47.2755 26.3502 48.2976 27.3707 50.3202 27.3707C53.3648 27.3707 55.5831 24.8086 55.5831 21.3998C55.5831 17.9693 53.2126 15.429 50.1462 15.429C48.1889 15.429 47.232 16.4929 46.7753 17.0791H46.5796V15.7113H44.0351V31.5ZM49.7765 24.9606C48.0149 24.9606 46.5578 23.6579 46.5578 21.3998C46.5578 19.4675 47.7974 17.8391 49.733 17.8391C51.538 17.8391 52.9516 19.2503 52.9516 21.3998C52.9516 23.5059 51.5815 24.9606 49.7765 24.9606Z" fill="#EDEDF0"/>
<path d="M56.9073 31.5H59.4735V25.6554H59.6692C60.1476 26.3502 61.1698 27.3707 63.1923 27.3707C66.237 27.3707 68.2438 24.8086 68.2438 21.3998C68.2438 17.9693 66.0847 15.429 63.0183 15.429C61.061 15.429 60.1041 16.4929 59.6474 17.0791H59.4517V15.7113H56.9073V31.5ZM62.6486 24.9606C60.8871 24.9606 59.43 23.6579 59.43 21.3998C59.43 19.4675 60.6696 17.8391 62.6051 17.8391C64.4102 17.8391 65.8238 19.2503 65.8238 21.3998C65.8238 23.5059 64.4537 24.9606 62.6486 24.9606Z" fill="#EDEDF0"/>
<path d="M71.6361 27.3526H75.2679L77.3339 18.4289H77.4644L79.5304 27.3526H83.1405L86.0314 15.9755H83.445L81.379 24.9208H81.1832L79.1172 15.9755H75.7028L73.6151 24.9208H73.4194L71.3751 15.9755H68.6349L71.6361 27.3526Z" fill="#EDEDF0"/>
<path d="M87.3315 27.3526H89.8977V21.7292C89.8977 19.5797 90.8981 18.2552 92.7683 18.2552H93.8992V15.6932H93.0511C91.594 15.6932 90.4849 16.692 90.0499 17.6473H89.8759V15.9755H87.3315V27.3526Z" fill="#EDEDF0"/>
<path d="M106.634 27.3526H108.635V25.0728H106.656C105.873 25.0728 105.547 24.7254 105.547 23.9221V18.2335H108.765V15.9755H105.547V12.7838H103.111V15.9755H100.98V18.2335H102.959V23.9438C102.959 26.3538 104.416 27.3526 106.634 27.3526Z" fill="#EDEDF0"/>
<path d="M115.52 27.3707C117.89 27.3707 119.978 26.1982 120.717 23.8316L118.368 23.2671C117.955 24.5264 116.759 25.1777 115.498 25.1777C113.628 25.1777 112.388 23.9619 112.366 22.0512H121V21.3347C121 17.9476 118.89 15.429 115.411 15.429C112.344 15.429 109.713 17.8391 109.713 21.4215C109.713 24.8955 112.04 27.3707 115.52 27.3707ZM112.388 20.184C112.54 18.8161 113.78 17.6654 115.411 17.6654C116.977 17.6654 118.26 18.6424 118.39 20.184H112.388Z" fill="#EDEDF0"/>
<path fill-rule="evenodd" clip-rule="evenodd" d="M99.8387 27.3526H97.2725V18.2335H95.2717V15.9755H99.8387V27.3526Z" fill="#EDEDF0"/>
<path d="M98.3648 14.3966C99.3 14.3966 99.9959 13.7018 99.9959 12.7899C99.9959 11.8997 99.3 11.2049 98.3648 11.2049C97.4297 11.2049 96.7337 11.8997 96.7337 12.7899C96.7337 13.7018 97.4297 14.3966 98.3648 14.3966Z" fill="#EDEDF0"/>
<path d="M22.406 24.5628V29.5838H9.85593C6.19958 29.5838 3.00707 27.5644 1.29901 24.5628C1.0507 24.1265 0.833376 23.6686 0.651075 23.1935C0.293208 22.2623 0.0682506 21.2632 0 20.2206V18.8631C0.0148176 18.6308 0.0381665 18.4003 0.0686996 18.1725C0.131113 17.7051 0.225407 17.2478 0.349335 16.8032C1.52172 12.5883 5.33388 9.5 9.85593 9.5C14.378 9.5 18.1897 12.5883 19.3621 16.8032H13.9959C13.1149 15.4293 11.59 14.5209 9.85593 14.5209C8.12182 14.5209 6.59696 15.4293 5.71599 16.8032C5.44748 17.2208 5.23913 17.6814 5.10263 18.1725C4.9814 18.608 4.91674 19.0672 4.91674 19.5419C4.91674 20.9811 5.51214 22.2783 6.46675 23.1935C7.35131 24.0429 8.5439 24.5628 9.85593 24.5628H22.406Z" fill="#FD366E"/>
<path d="M22.406 18.1725V23.1935H13.2451C14.1997 22.2783 14.7951 20.9811 14.7951 19.5419C14.7951 19.0672 14.7304 18.608 14.6092 18.1725H22.406Z" fill="#FD366E"/>
</svg>
