<?xml version="1.0" encoding="UTF-8"?>
<svg xmlns="http://www.w3.org/2000/svg" xmlns:xlink="http://www.w3.org/1999/xlink" width="103px" height="41px" viewBox="0 0 103 41" version="1.1">
<g id="surface1">
<path style=" stroke:none;fill-rule:nonzero;fill:rgb(95.294118%,94.117647%,87.843137%);fill-opacity:1;" d="M 45.386719 13.769531 L 46.816406 13.769531 L 46.816406 16.871094 L 49.265625 16.871094 L 49.265625 13.769531 L 50.695312 13.769531 L 50.695312 21.363281 L 49.265625 21.363281 L 49.265625 18.238281 L 46.816406 18.238281 L 46.816406 21.363281 L 45.386719 21.363281 Z M 45.386719 13.769531 "/>
<path style=" stroke:none;fill-rule:nonzero;fill:rgb(95.294118%,94.117647%,87.843137%);fill-opacity:1;" d="M 55.851562 19.738281 L 53.273438 19.738281 L 52.90625 21.363281 L 51.410156 21.363281 L 53.21875 13.769531 L 55.90625 13.769531 L 57.714844 21.363281 L 56.21875 21.363281 Z M 53.574219 18.371094 L 55.535156 18.371094 L 54.660156 14.488281 L 54.464844 14.488281 Z M 53.574219 18.371094 "/>
<path style=" stroke:none;fill-rule:nonzero;fill:rgb(95.294118%,94.117647%,87.843137%);fill-opacity:1;" d="M 61.105469 20.214844 C 61.378906 20.214844 61.601562 20.175781 61.78125 20.089844 C 61.957031 20.007812 62.09375 19.894531 62.191406 19.753906 C 62.289062 19.613281 62.355469 19.453125 62.394531 19.265625 C 62.429688 19.082031 62.449219 18.894531 62.449219 18.699219 L 62.449219 18.5 L 63.878906 18.5 L 63.878906 18.699219 C 63.878906 19.601562 63.640625 20.296875 63.167969 20.785156 C 62.695312 21.273438 62.007812 21.519531 61.105469 21.519531 C 60.203125 21.519531 59.550781 21.253906 59.046875 20.726562 C 58.542969 20.199219 58.289062 19.425781 58.289062 18.414062 L 58.289062 16.722656 C 58.289062 16.234375 58.355469 15.800781 58.484375 15.414062 C 58.613281 15.027344 58.800781 14.703125 59.046875 14.4375 C 59.292969 14.171875 59.589844 13.96875 59.9375 13.828125 C 60.28125 13.6875 60.671875 13.617188 61.105469 13.617188 C 61.539062 13.617188 61.949219 13.683594 62.296875 13.8125 C 62.640625 13.941406 62.933594 14.128906 63.167969 14.375 C 63.402344 14.621094 63.578125 14.917969 63.699219 15.265625 C 63.816406 15.613281 63.878906 16.003906 63.878906 16.4375 L 63.878906 16.632812 L 62.449219 16.632812 L 62.449219 16.4375 C 62.449219 16.257812 62.425781 16.074219 62.382812 15.894531 C 62.339844 15.714844 62.265625 15.550781 62.164062 15.40625 C 62.0625 15.261719 61.925781 15.144531 61.753906 15.054688 C 61.578125 14.964844 61.363281 14.917969 61.105469 14.917969 C 60.863281 14.917969 60.660156 14.964844 60.484375 15.054688 C 60.3125 15.144531 60.167969 15.265625 60.050781 15.421875 C 59.9375 15.578125 59.851562 15.757812 59.796875 15.964844 C 59.742188 16.171875 59.714844 16.386719 59.714844 16.609375 L 59.714844 18.519531 C 59.714844 18.765625 59.742188 18.992188 59.792969 19.199219 C 59.839844 19.402344 59.921875 19.582031 60.03125 19.734375 C 60.140625 19.886719 60.28125 20.003906 60.457031 20.085938 C 60.636719 20.171875 60.851562 20.210938 61.101562 20.210938 Z M 61.105469 20.214844 "/>
<path style=" stroke:none;fill-rule:nonzero;fill:rgb(95.294118%,94.117647%,87.843137%);fill-opacity:1;" d="M 66.550781 21.363281 L 65.121094 21.363281 L 65.121094 13.769531 L 66.550781 13.769531 L 66.550781 16.882812 L 66.867188 16.882812 L 68.871094 13.769531 L 70.484375 13.769531 L 70.484375 13.835938 L 68.144531 17.46875 L 68.144531 17.664062 L 70.613281 21.300781 L 70.613281 21.367188 L 68.933594 21.367188 L 66.867188 18.25 L 66.550781 18.25 L 66.550781 21.367188 Z M 66.550781 21.363281 "/>
<path style=" stroke:none;fill-rule:nonzero;fill:rgb(95.294118%,94.117647%,87.843137%);fill-opacity:1;" d="M 71.394531 13.769531 L 76.855469 13.769531 L 76.855469 15.136719 L 74.839844 15.136719 L 74.839844 21.363281 L 73.410156 21.363281 L 73.410156 15.136719 L 71.394531 15.136719 Z M 71.394531 13.769531 "/>
<path style=" stroke:none;fill-rule:nonzero;fill:rgb(95.294118%,94.117647%,87.843137%);fill-opacity:1;" d="M 77.847656 16.722656 C 77.847656 15.738281 78.097656 14.972656 78.589844 14.433594 C 79.085938 13.890625 79.769531 13.617188 80.644531 13.617188 C 81.519531 13.617188 82.203125 13.886719 82.699219 14.433594 C 83.191406 14.972656 83.441406 15.738281 83.441406 16.722656 L 83.441406 18.414062 C 83.441406 19.425781 83.191406 20.199219 82.699219 20.726562 C 82.203125 21.253906 81.519531 21.519531 80.644531 21.519531 C 79.769531 21.519531 79.085938 21.253906 78.589844 20.726562 C 78.097656 20.199219 77.847656 19.425781 77.847656 18.414062 Z M 80.644531 20.214844 C 80.90625 20.214844 81.121094 20.175781 81.292969 20.089844 C 81.46875 20.007812 81.609375 19.890625 81.71875 19.738281 C 81.828125 19.585938 81.902344 19.40625 81.945312 19.195312 C 81.988281 18.988281 82.011719 18.753906 82.011719 18.5 L 82.011719 16.636719 C 82.011719 16.394531 81.984375 16.171875 81.933594 15.960938 C 81.882812 15.753906 81.804688 15.570312 81.695312 15.421875 C 81.585938 15.269531 81.445312 15.148438 81.273438 15.054688 C 81.097656 14.964844 80.890625 14.921875 80.644531 14.921875 C 80.402344 14.921875 80.1875 14.964844 80.015625 15.054688 C 79.84375 15.148438 79.703125 15.269531 79.59375 15.421875 C 79.484375 15.570312 79.40625 15.753906 79.355469 15.960938 C 79.304688 16.171875 79.28125 16.398438 79.28125 16.636719 L 79.28125 18.5 C 79.28125 18.753906 79.300781 18.988281 79.34375 19.195312 C 79.386719 19.40625 79.464844 19.585938 79.574219 19.738281 C 79.679688 19.890625 79.824219 20.007812 79.996094 20.089844 C 80.167969 20.175781 80.386719 20.214844 80.644531 20.214844 Z M 80.644531 20.214844 "/>
<path style=" stroke:none;fill-rule:nonzero;fill:rgb(95.294118%,94.117647%,87.843137%);fill-opacity:1;" d="M 84.347656 20 L 85.0625 20 L 85.0625 15.136719 L 84.347656 15.136719 L 84.347656 13.769531 L 87.675781 13.769531 C 88.035156 13.769531 88.355469 13.820312 88.632812 13.921875 C 88.914062 14.023438 89.148438 14.160156 89.335938 14.335938 C 89.527344 14.507812 89.671875 14.714844 89.773438 14.960938 C 89.871094 15.203125 89.917969 15.464844 89.917969 15.746094 L 89.917969 15.875 C 89.917969 16.3125 89.796875 16.660156 89.554688 16.917969 C 89.3125 17.179688 89.007812 17.359375 88.640625 17.460938 L 88.640625 17.65625 C 89.007812 17.757812 89.3125 17.941406 89.554688 18.203125 C 89.796875 18.46875 89.917969 18.816406 89.917969 19.25 L 89.917969 19.378906 C 89.917969 19.664062 89.867188 19.925781 89.773438 20.167969 C 89.675781 20.410156 89.53125 20.621094 89.335938 20.796875 C 89.148438 20.972656 88.914062 21.113281 88.632812 21.214844 C 88.355469 21.316406 88.035156 21.367188 87.675781 21.367188 L 84.347656 21.367188 Z M 86.492188 16.871094 L 87.53125 16.871094 C 87.835938 16.871094 88.082031 16.808594 88.269531 16.683594 C 88.457031 16.554688 88.550781 16.339844 88.550781 16.039062 L 88.550781 15.972656 C 88.550781 15.667969 88.457031 15.453125 88.269531 15.328125 C 88.082031 15.199219 87.835938 15.136719 87.53125 15.136719 L 86.492188 15.136719 Z M 86.492188 20 L 87.53125 20 C 87.835938 20 88.082031 19.933594 88.269531 19.804688 C 88.457031 19.671875 88.550781 19.457031 88.550781 19.152344 L 88.550781 19.085938 C 88.550781 18.785156 88.457031 18.566406 88.269531 18.4375 C 88.082031 18.304688 87.835938 18.242188 87.53125 18.242188 L 86.492188 18.242188 Z M 86.492188 20 "/>
<path style=" stroke:none;fill-rule:nonzero;fill:rgb(95.294118%,94.117647%,87.843137%);fill-opacity:1;" d="M 91.257812 13.769531 L 96.046875 13.769531 L 96.046875 15.136719 L 92.6875 15.136719 L 92.6875 16.871094 L 95.917969 16.871094 L 95.917969 18.238281 L 92.6875 18.238281 L 92.6875 19.996094 L 96.175781 19.996094 L 96.175781 21.363281 L 91.257812 21.363281 L 91.257812 13.765625 Z M 91.257812 13.769531 "/>
<path style=" stroke:none;fill-rule:nonzero;fill:rgb(95.294118%,94.117647%,87.843137%);fill-opacity:1;" d="M 102.773438 21.363281 L 101.34375 21.363281 L 101.34375 19.085938 C 101.34375 18.914062 101.296875 18.773438 101.207031 18.664062 C 101.117188 18.554688 100.96875 18.5 100.757812 18.5 L 99.109375 18.5 L 99.109375 21.363281 L 97.679688 21.363281 L 97.679688 13.769531 L 100.585938 13.769531 C 100.976562 13.769531 101.316406 13.824219 101.613281 13.933594 C 101.910156 14.039062 102.15625 14.191406 102.355469 14.382812 C 102.554688 14.574219 102.707031 14.796875 102.808594 15.050781 C 102.914062 15.300781 102.964844 15.574219 102.964844 15.863281 L 102.964844 16.125 C 102.964844 16.4375 102.882812 16.726562 102.71875 17 C 102.550781 17.269531 102.292969 17.476562 101.949219 17.625 L 101.949219 17.820312 C 102.199219 17.847656 102.402344 17.945312 102.550781 18.109375 C 102.695312 18.277344 102.773438 18.488281 102.773438 18.738281 Z M 99.113281 17.132812 L 100.476562 17.132812 C 100.824219 17.132812 101.085938 17.050781 101.269531 16.890625 C 101.449219 16.726562 101.539062 16.496094 101.539062 16.199219 L 101.539062 16.070312 C 101.539062 15.816406 101.449219 15.597656 101.269531 15.414062 C 101.089844 15.230469 100.824219 15.136719 100.476562 15.136719 L 99.113281 15.136719 L 99.113281 17.136719 Z M 99.113281 17.132812 "/>
<path style=" stroke:none;fill-rule:nonzero;fill:rgb(95.294118%,94.117647%,87.843137%);fill-opacity:1;" d="M 45.386719 24.078125 L 50.238281 24.078125 L 50.238281 25.445312 L 46.816406 25.445312 L 46.816406 27.179688 L 50.175781 27.179688 L 50.175781 28.546875 L 46.816406 28.546875 L 46.816406 31.671875 L 45.386719 31.671875 Z M 45.386719 24.078125 "/>
<path style=" stroke:none;fill-rule:nonzero;fill:rgb(95.294118%,94.117647%,87.843137%);fill-opacity:1;" d="M 51.84375 24.078125 L 56.628906 24.078125 L 56.628906 25.445312 L 53.273438 25.445312 L 53.273438 27.179688 L 56.5 27.179688 L 56.5 28.546875 L 53.273438 28.546875 L 53.273438 30.304688 L 56.761719 30.304688 L 56.761719 31.671875 L 51.84375 31.671875 L 51.84375 24.074219 Z M 51.84375 24.078125 "/>
<path style=" stroke:none;fill-rule:nonzero;fill:rgb(95.294118%,94.117647%,87.843137%);fill-opacity:1;" d="M 62.089844 26.398438 C 62.089844 26.097656 61.972656 25.832031 61.738281 25.605469 C 61.503906 25.382812 61.171875 25.269531 60.746094 25.269531 C 60.386719 25.269531 60.101562 25.34375 59.890625 25.492188 C 59.683594 25.644531 59.578125 25.84375 59.578125 26.097656 C 59.578125 26.226562 59.605469 26.34375 59.65625 26.449219 C 59.707031 26.554688 59.792969 26.648438 59.921875 26.730469 C 60.046875 26.8125 60.210938 26.886719 60.417969 26.953125 C 60.625 27.019531 60.886719 27.082031 61.203125 27.136719 C 62 27.28125 62.605469 27.523438 63.023438 27.863281 C 63.441406 28.207031 63.652344 28.707031 63.652344 29.375 L 63.652344 29.503906 C 63.652344 29.859375 63.589844 30.179688 63.460938 30.464844 C 63.335938 30.75 63.152344 30.996094 62.914062 31.195312 C 62.675781 31.398438 62.386719 31.554688 62.050781 31.664062 C 61.710938 31.769531 61.328125 31.824219 60.898438 31.824219 C 60.402344 31.824219 59.964844 31.753906 59.582031 31.613281 C 59.203125 31.472656 58.890625 31.277344 58.636719 31.027344 C 58.382812 30.777344 58.191406 30.484375 58.0625 30.148438 C 57.933594 29.8125 57.867188 29.445312 57.867188 29.046875 L 57.867188 28.722656 L 59.296875 28.722656 L 59.296875 28.984375 C 59.296875 29.4375 59.429688 29.804688 59.691406 30.074219 C 59.953125 30.34375 60.367188 30.480469 60.921875 30.480469 C 61.355469 30.480469 61.675781 30.386719 61.886719 30.199219 C 62.09375 30.011719 62.199219 29.785156 62.199219 29.527344 C 62.199219 29.402344 62.175781 29.285156 62.132812 29.175781 C 62.089844 29.0625 62.015625 28.960938 61.90625 28.871094 C 61.796875 28.78125 61.648438 28.699219 61.460938 28.625 C 61.273438 28.554688 61.035156 28.492188 60.746094 28.441406 C 60.363281 28.375 60.011719 28.292969 59.695312 28.1875 C 59.378906 28.082031 59.101562 27.941406 58.867188 27.769531 C 58.632812 27.59375 58.449219 27.378906 58.320312 27.117188 C 58.191406 26.855469 58.125 26.539062 58.125 26.160156 L 58.125 26.097656 C 58.125 25.785156 58.1875 25.496094 58.316406 25.234375 C 58.441406 24.96875 58.617188 24.742188 58.847656 24.546875 C 59.074219 24.351562 59.347656 24.199219 59.667969 24.089844 C 59.988281 23.980469 60.347656 23.925781 60.746094 23.925781 C 61.195312 23.925781 61.589844 23.988281 61.9375 24.117188 C 62.285156 24.242188 62.574219 24.414062 62.808594 24.632812 C 63.042969 24.847656 63.222656 25.097656 63.339844 25.378906 C 63.457031 25.664062 63.519531 25.960938 63.519531 26.269531 L 63.519531 26.660156 L 62.089844 26.660156 Z M 62.089844 26.398438 "/>
<path style=" stroke:none;fill-rule:nonzero;fill:rgb(95.294118%,94.117647%,87.843137%);fill-opacity:1;" d="M 64.582031 24.078125 L 70.039062 24.078125 L 70.039062 25.445312 L 68.027344 25.445312 L 68.027344 31.671875 L 66.597656 31.671875 L 66.597656 25.445312 L 64.582031 25.445312 Z M 64.582031 24.078125 "/>
<path style=" stroke:none;fill-rule:nonzero;fill:rgb(95.294118%,94.117647%,87.843137%);fill-opacity:1;" d="M 18.386719 27.269531 L 18.386719 9.183594 L 13.871094 9.183594 L 13.871094 13.703125 L 9.28125 13.703125 L 9.28125 18.226562 L 13.871094 18.226562 L 13.871094 27.269531 L 9.28125 27.269531 L 9.28125 31.789062 L 22.824219 31.789062 L 22.824219 27.269531 Z M 18.386719 27.269531 "/>
<path style=" stroke:none;fill-rule:nonzero;fill:rgb(95.294118%,94.117647%,87.843137%);fill-opacity:1;" d="M 31.832031 27.277344 L 31.832031 13.710938 L 27.320312 13.710938 L 27.320312 18.234375 L 22.808594 18.234375 L 22.808594 22.753906 L 27.320312 22.753906 L 27.320312 31.796875 L 36.347656 31.796875 L 36.347656 27.277344 Z M 31.832031 27.277344 "/>
<path style=" stroke:none;fill-rule:nonzero;fill:rgb(95.294118%,94.117647%,87.843137%);fill-opacity:1;" d="M 9.3125 40.992188 L 4.695312 36.4375 L 4.695312 4.738281 L 36.339844 4.738281 L 40.960938 9.289062 L 40.960938 0 L 0.03125 0 L 0.03125 41 Z M 9.3125 40.992188 "/>
</g>
</svg>
